<svg id="Layer_1" data-name="Layer 1" xmlns="http://www.w3.org/2000/svg" viewBox="0 0 721.67 164.49"><defs><style>.cls-1{fill:#fcfcfc;}.cls-2{font-size:48.05px;fill:#fff;font-family:Montserrat-Regular, Montserrat;}.cls-3{letter-spacing:-0.02em;}</style></defs><title>logo-hi-GIA-putih</title><g id="Layer_1-2" data-name="Layer 1-2"><path class="cls-1" d="M300.63-211.16c-10.11-1.46-19.86-3.9-29.66-4.08-23.57-.43-40.09,13.24-44.29,36.41-3,16.64-2.68,33.25,5.42,48.75,8.24,15.78,23,18.19,39.55,16,1.18-.15,2.91-2.41,2.94-3.74.27-9.65.13-19.31.21-29,0-3.1-1.58-3.89-4.38-4-3.85-.19-9,.52-11.13-1.62s-.74-7.23-.88-11.05c-.05-1.49,0-3-.05-4.49-.13-2.72,1.05-3.92,3.83-3.91q19,.1,38,0c3.14,0,4,1.51,4,4.33,0,23.65.05,47.3-.15,71a5.93,5.93,0,0,1-3.33,4.41c-17.77,5.13-35.87,7.68-54.3,4.73-22.26-3.57-38-16.15-45.85-37.07-10.38-27.81-10.74-55.82,3.58-82.68,9.55-17.94,25.1-28,45-31.48a91.32,91.32,0,0,1,39.6,2c4.42,1.18,7.26,3.28,8.07,8.16C297.77-222.4,299.44-216.36,300.63-211.16Z" transform="translate(0 239.94)"/><path class="cls-1" d="M372.93-88.9c3.82-12.75,7.27-24.37,10.77-36,10.85-36,21.79-72,32.51-108.09,1.15-3.85,2.76-5.42,6.9-5.23,7.48.32,15,.26,22.48,0,3.64-.12,5.31,1.14,6.35,4.64,8.26,27.76,16.7,55.47,25.09,83.2q8.33,27.49,16.63,55c.56,1.84.91,3.75,1.57,6.53H472.75c-2.33,0-4.67-.13-7,0-2.86.19-4.17-1.09-4.8-3.83-1.46-6.33-3.25-12.58-4.72-18.9-.64-2.77-2.06-3.84-4.87-3.82-11.65.09-23.32-.1-35,.23-1.62,0-4.05,2.13-4.6,3.77-2.07,6.14-3.38,12.53-5.29,18.73-.45,1.45-2.08,3.55-3.23,3.59C393.51-88.78,383.72-88.9,372.93-88.9ZM434.65-200l-1.4-.13c-5,19.81-10,39.62-15.24,60.54,9.83,0,18.58-.11,27.33,0,4.05.07,4.75-1.39,3.77-5.14-4.5-17.22-8.76-34.51-13.14-51.77A35.92,35.92,0,0,0,434.65-200Z" transform="translate(0 239.94)"/><path class="cls-1" d="M.1-163c0-22.51.11-45-.1-67.5,0-4.6,1.36-6.1,6-6,11.83.37,9.92-1.2,10,10.18.14,15.16.17,30.33-.05,45.48-.06,4.36,1.31,5.8,5.71,5.76q29.48-.3,59,0c4.16,0,5.5-1.35,5.46-5.46-.21-16.83,0-33.65-.12-50.46,0-4.14,1.31-5.53,5.44-5.43,12.48.31,10.42-1.2,10.44,10.24.1,43.49,0,87,0,130.45,0,6.56,0,6.59-6.67,6.52-10.19-.1-9.16,1.14-9.19-9,0-18.65-.12-37.32.08-56,0-4.38-1.38-5.8-5.74-5.76q-29.23.27-58.47,0c-4.66-.05-6,1.63-5.94,6.14.19,19.65,0,39.32.17,59,0,4.34-1.18,5.84-5.63,5.73C-1.9-89.43.21-88.11.15-99.51,0-120.71.11-141.87.1-163Z" transform="translate(0 239.94)"/><path class="cls-1" d="M326.77-163.55c0-22.66.11-45.31-.09-68,0-4.6,1.39-6.17,6-5.93a162.75,162.75,0,0,0,19,0c4.81-.31,5.9,1.59,5.89,6-.15,32.65-.09,65.29-.09,97.94,0,12.83-.12,25.66.06,38.48.06,4.09-1.27,5.65-5.46,5.47-6.65-.28-13.33-.31-20,0-4.23.17-5.38-1.45-5.35-5.5C326.85-117.91,326.77-140.73,326.77-163.55Z" transform="translate(0 239.94)"/><path class="cls-1" d="M141.61-143c0,15.83-.21,31.67.13,47.49.11,5.24-1.69,7-6.6,6.26a4.17,4.17,0,0,0-.5,0c-7,0-7,0-7-6.78v-33.49c0-20.67.22-41.34-.13-62-.1-6,3-5.79,7.12-5.79s7.25-.14,7.1,5.81C141.34-175.32,141.6-159.15,141.61-143Z" transform="translate(0 239.94)"/><path class="cls-1" d="M134.37-218.35c-5.45-.07-8.43-2.53-8.45-7,0-4.86,3.54-8.07,8.83-8,4.91.09,8.4,3.19,8.31,7.39C143-221.26,139.54-218.29,134.37-218.35Z" transform="translate(0 239.94)"/></g><text class="cls-2" transform="translate(519.29 151.9)">Desk<tspan class="cls-3" x="121.08" y="0">t</tspan><tspan x="139.68" y="0">op</tspan></text></svg>