<svg xmlns="http://www.w3.org/2000/svg" viewBox="0 0 841.2 148.61"><defs><style>.cls-1{fill:#fff;}</style></defs><title>logo GA putih</title><g id="Layer_2" data-name="Layer 2"><g id="Layer_1-2" data-name="Layer 1"><path class="cls-1" d="M28.05,148.61c-1.64-.28-3.3-.52-4.93-.84-10-1.93-16.89-7.68-20.28-17.29s-3.9-19.36-.69-29.1c2.59-7.86,7.4-14,14.91-17.76a30.84,30.84,0,0,1,12.5-3.09,39.3,39.3,0,0,1,11.74,1,.9.9,0,0,0,.16,0c3.92,1,3.92,1,5,4.87.2.72.38,1.44.64,2.39l-1.77-.66A29.64,29.64,0,0,0,27,87c-6.22,1.61-10.45,5.63-13,11.5a33,33,0,0,0-2.49,10.52,59.43,59.43,0,0,0,.84,17.25,26.41,26.41,0,0,0,3.44,8.86,15.74,15.74,0,0,0,11.66,7.34,29.34,29.34,0,0,0,10.15-.34c.2,0,.4-.13.71-.23v-26a53.41,53.41,0,0,0-10.83.41l.75-4.92h20.3c.38,1.16.49,32.26.12,34.39a46.15,46.15,0,0,1-8,1.79c-2.09.28-4.18.49-6.28.75a6.34,6.34,0,0,0-.92.26Z"/><path class="cls-1" d="M586.83,2,585.78.07C586.49,0,587,0,587.44,0c17.19,0,34.38-.06,51.57.13,6.85.08,13.7.71,20.55,1.21a116.16,116.16,0,0,1,19.36,2.9,126.85,126.85,0,0,1,46.37,21.61c9.21,6.9,18.66,13.47,28,20.19l19.62,14.1c.38.28.75.59,1.24,1C771.1,63.8,768,66,763.73,65.52a15.52,15.52,0,0,1-6.48-2.43c-2.64-1.69-5.18-3.53-7.72-5.35-13.54-9.68-27-19.43-40.61-29.06a225.34,225.34,0,0,0-21-13.2,94.22,94.22,0,0,0-26-9.6A152.56,152.56,0,0,0,638,2.58c-5.55-.32-11.12-.52-16.68-.57-10.86-.08-21.73,0-32.6,0Z"/><path class="cls-1" d="M761.51,70.27a16.36,16.36,0,0,1-8,4.54,9.64,9.64,0,0,1-4.79-.41,24.54,24.54,0,0,1-7.31-3.77q-16.59-11.91-33.2-23.79a280.55,280.55,0,0,0-25.4-16.2,85.62,85.62,0,0,0-26.73-9.52,145,145,0,0,0-25.8-2.27c-10.59,0-21.18,0-31.78,0h-1.94c-.35-.64-.66-1.19-1-1.89.61-.06,1-.13,1.43-.13,15.67,0,31.35-.06,47,.16a193.85,193.85,0,0,1,31.61,2.82A90.21,90.21,0,0,1,698,27.18a153.13,153.13,0,0,1,24.56,15c12.57,9.09,25.2,18.09,37.8,27.13C760.69,69.62,761.06,69.92,761.51,70.27Z"/><path class="cls-1" d="M395.08,81c2.92.1,5.72-.24,8.49.26a4.33,4.33,0,0,1,3.5,3.78,11.79,11.79,0,0,1,.08,1.78v60.36a8,8,0,0,1-1,.17c-2,0-4,0-6,0-1.65,0-2.2-.64-2.26-2.29,0-.69,0-1.38,0-2.36-.56.37-.91.56-1.22.81a17.44,17.44,0,0,1-8,4.14c-9.12,1.68-16.91-2-20.37-11.26a36.19,36.19,0,0,1-2-11.1,39.15,39.15,0,0,1,1.74-13.9,22.46,22.46,0,0,1,5.41-9.28,16.19,16.19,0,0,1,10.75-4.64,18.25,18.25,0,0,1,6.57.7,11.55,11.55,0,0,1,5.77,3.71c.17.2.36.38.79.84,0-.82.08-1.33.08-1.84,0-4.49,0-9,0-13.45a7.48,7.48,0,0,0-2.06-5.77C395.26,81.5,395.24,81.33,395.08,81Zm2.37,44.27c0-3.35,0-6.69,0-10a20.93,20.93,0,0,0-.86-6.39,7.62,7.62,0,0,0-5.27-5.27,15.73,15.73,0,0,0-4-.62,8.25,8.25,0,0,0-7.16,3.71,15.43,15.43,0,0,0-2.45,5.6,46.27,46.27,0,0,0-.47,18,19.4,19.4,0,0,0,3,8.14,8.72,8.72,0,0,0,8.79,4,11.72,11.72,0,0,0,7.47-3.8,3.29,3.29,0,0,0,1-2.45C397.42,132.46,397.45,128.84,397.45,125.22Z"/><path class="cls-1" d="M221.32,147.29c-2.6,0-4.92,0-7.24,0-1.35,0-1.92-.66-2-2,0-.75,0-1.51,0-2.3-.81-.13-1.13.46-1.55.8a17.57,17.57,0,0,1-7.9,3.91c-9.15,1.55-16.72-2.27-20.08-11.32a39.37,39.37,0,0,1-1.82-17.89,31.76,31.76,0,0,1,3.24-11.3c4.76-9.38,13.81-11.13,21.34-8.92a10.92,10.92,0,0,1,5.37,3.47c.2.25.43.47.86.94.06-.7.13-1.14.13-1.58,0-4.71,0-9.41,0-14.11a7,7,0,0,0-1.92-5.16c-.14-.15-.26-.34-.49-.63A8.43,8.43,0,0,1,210.4,81c1.67,0,3.35,0,5,0a11.8,11.8,0,0,1,1.46.09c2.92.34,4.44,2,4.44,5v61.27ZM211.64,125c0-3.13,0-6.26,0-9.39a35.2,35.2,0,0,0-.28-4.36c-.4-2.82-1.41-5.35-4-6.88a10.83,10.83,0,0,0-7.49-1.34,7.6,7.6,0,0,0-5.4,3.52,18.94,18.94,0,0,0-2.25,4.8,42.9,42.9,0,0,0,0,22.24A14.84,14.84,0,0,0,195,139.2a8.23,8.23,0,0,0,6.62,3.2,11.83,11.83,0,0,0,9.19-4,3,3,0,0,0,.82-2.18C211.62,132.46,211.64,128.73,211.64,125Z"/><path class="cls-1" d="M605.61,33.85h1.62c13.67,0,27.34,0,41,.1,4.41,0,8.84.44,13.24.86,4.12.4,8.26.88,12.33,1.63a84.59,84.59,0,0,1,33.64,14.11c9.64,6.76,19.15,13.71,28.72,20.58Q741.58,75,747,78.9c.34.25.67.52,1.13.87a7.94,7.94,0,0,1-.91.92c-1.1.78-2.2,1.57-3.34,2.28a9.56,9.56,0,0,1-8.41.78A23.38,23.38,0,0,1,729,80.46C718.49,72.93,708,65.35,697.48,57.91A187.2,187.2,0,0,0,674.86,44a72.61,72.61,0,0,0-19.63-6.4,119.74,119.74,0,0,0-23.83-2c-7.89.09-15.79,0-23.68,0C606.26,35.61,606.26,35.6,605.61,33.85Z"/><path class="cls-1" d="M173.57,147.27c-2.24,0-4.29.08-6.33,0-1.76-.09-2.48-.92-2.61-2.69,0-.54,0-1.08,0-1.62s0-.93-.07-1.6a3.09,3.09,0,0,0-.6.48c-2.76,3.8-6.63,5.6-11.17,6.07a19.92,19.92,0,0,1-7.09-.38,13,13,0,0,1-9.55-9,23.14,23.14,0,0,1-1-7.35q0-13.7,0-27.4c0-2-.38-3.76-2.4-5.12.63-.08,1-.15,1.28-.16q3.24,0,6.49,0a8.6,8.6,0,0,1,1.76.15,2.71,2.71,0,0,1,2.53,3c0,2.16,0,4.32,0,6.49,0,7.83,0,15.67,0,23.5a24.71,24.71,0,0,0,.67,5.28c.71,3,2.77,4.59,5.84,5a12.55,12.55,0,0,0,8.83-1.85,8.06,8.06,0,0,0,3.94-7.18c0-10.76,0-21.51,0-32.26v-2h9.53Z"/><path class="cls-1" d="M473.45,147.24H463.8v-2q0-20.59,0-41.19c0-2,0-3.88-1.64-5.53.68,0,1.36,0,2.05,0l5.83,0c2,0,2.76.7,2.84,2.68,0,1,0,2,0,3.32a4.06,4.06,0,0,0,.68-.52c3.06-4.24,7.4-6,12.44-6.22a23.12,23.12,0,0,1,5.31.41,13.3,13.3,0,0,1,10.51,11,35.75,35.75,0,0,1,.64,6.27c.06,10.11,0,20.22,0,30.33,0,.42,0,.84-.06,1.37a10.06,10.06,0,0,1-1.12.14c-1.68,0-3.36.05-5,0a3.39,3.39,0,0,1-3.4-3.25,18.15,18.15,0,0,1-.06-1.95c0-8.75,0-17.51,0-26.26a34.74,34.74,0,0,0-.56-6.12c-.67-3.55-2.5-5.19-6.09-5.73a12.17,12.17,0,0,0-8.82,1.9,8.18,8.18,0,0,0-3.91,7.22c0,6.65,0,13.3,0,19.95v14.2Z"/><path class="cls-1" d="M330,147.22h-9.61v-1.85q0-20.84,0-41.68c0-1.85-.24-3.54-1.94-5a13,13,0,0,1,1.41-.17c2.27,0,4.54,0,6.81-.05,1.88,0,2.68.77,2.72,2.63,0,1,0,2.1,0,3.46a7.16,7.16,0,0,0,.73-.65c3-4.05,7.13-5.85,12-6.14a22.05,22.05,0,0,1,5.79.41c5.59,1.18,8.91,4.84,10.27,10.27a24.29,24.29,0,0,1,.71,5.76c.08,10.6,0,21.2.06,31.79,0,.37-.06.73-.1,1.24-2.21,0-4.37.11-6.5,0a3,3,0,0,1-2.8-2.55,11,11,0,0,1-.26-2.57c0-9.13,0-18.27-.05-27.41a26.66,26.66,0,0,0-.68-5.76,6.09,6.09,0,0,0-5.39-4.89A12.58,12.58,0,0,0,334,105.8a8.1,8.1,0,0,0-4,7.29c0,10.7,0,21.41,0,32.11Z"/><path class="cls-1" d="M456.85,122.81c0,5.55-1,10.82-3.92,15.57-3.78,6.19-9.29,9.48-16.59,9.61a29.94,29.94,0,0,1-7.24-.69c-6.62-1.49-11.19-5.44-13.23-11.84a37.64,37.64,0,0,1,.63-25.9c2.78-7,8.12-11,15.66-11.93a26.52,26.52,0,0,1,8.39.23c6.89,1.3,11.54,5.3,14.07,11.82A37.68,37.68,0,0,1,456.85,122.81Zm-32.65.3c.18,2.58.28,5.17.56,7.74a20.17,20.17,0,0,0,2.66,8.26c2.87,4.8,12,6.65,16-.29a21.67,21.67,0,0,0,2.48-7,59.61,59.61,0,0,0,.21-17.59,20.45,20.45,0,0,0-2.15-7.09c-3.45-6.54-12.29-5.51-15.39-1.8a14.77,14.77,0,0,0-2.86,5.39A46.34,46.34,0,0,0,424.2,123.11Z"/><path class="cls-1" d="M233,106.42c.31-1.94.5-3.64.9-5.29.11-.44.8-.82,1.31-1.08a25.62,25.62,0,0,1,8.32-2.56,29.81,29.81,0,0,1,12.84.89c4.91,1.52,8.47,4.53,9.89,9.6a21.53,21.53,0,0,1,.76,5.59c.07,10.87,0,21.74,0,32.6,0,.32,0,.63-.08,1.05-2.34,0-4.6.1-6.84,0-1.3-.08-1.95-1-2.08-2.31-.06-.59,0-1.19,0-1.78s0-1,0-1.91c-.52.49-.8.7-1,1a15.94,15.94,0,0,1-11.23,5.75,20.14,20.14,0,0,1-7.25-.43c-5.33-1.46-8.42-5.07-9.57-10.36-1.59-7.24,1.54-13.66,8.17-17a27.75,27.75,0,0,1,9.48-2.63,37.27,37.27,0,0,1,9.38,0,8.61,8.61,0,0,0,1.14,0c.08-.14.23-.28.23-.41-.06-2.64,0-5.3-.24-7.92a6.69,6.69,0,0,0-4.56-5.8,19.34,19.34,0,0,0-12.26-.31,21.3,21.3,0,0,0-6.05,2.68C233.89,105.93,233.56,106.09,233,106.42Zm24.3,15.66a23.73,23.73,0,0,0-10-.07c-5.7,1.31-8.61,4.57-8.94,10-.36,5.75,3.85,10,9.5,9.49a12.43,12.43,0,0,0,6.68-2.65,6.89,6.89,0,0,0,2.82-5.73c0-3.19,0-6.38,0-9.57C257.36,123.08,257.31,122.66,257.27,122.08Z"/><path class="cls-1" d="M637.82,141.43c-.51.56-1,1.12-1.52,1.66a15.38,15.38,0,0,1-7.33,4.25,20.65,20.65,0,0,1-9.15.35c-5.94-1.07-9.42-4.75-10.7-10.53-1.62-7.29,1.56-13.77,8.26-17.09a27.63,27.63,0,0,1,9.16-2.55,36.71,36.71,0,0,1,9.54,0,8.55,8.55,0,0,0,1.24,0c.06-.09.12-.14.12-.18,0-2.8.11-5.61-.15-8.38a6.52,6.52,0,0,0-4.55-5.61,18.73,18.73,0,0,0-8.3-1,20,20,0,0,0-11.26,4.14c.32-2,.53-3.7.88-5.35.08-.36.66-.67,1.07-.89a25,25,0,0,1,8.61-2.71,29.92,29.92,0,0,1,12.83.9,14.71,14.71,0,0,1,8.06,5.66,13,13,0,0,1,2.25,6,38.58,38.58,0,0,1,.31,4.68q0,15.41,0,30.81c0,.53,0,1-.08,1.69-2.3,0-4.5.09-6.7,0a2.18,2.18,0,0,1-2.19-2.35c-.07-1.11,0-2.23,0-3.35Zm-.4-19.35c-4.39-.8-8.6-.91-12.69.83a9.58,9.58,0,0,0-6.24,10c.27,5.34,3.93,8.82,9.15,8.59a12.29,12.29,0,0,0,7.27-2.84,6.78,6.78,0,0,0,2.6-5.51q0-4.87,0-9.73C637.51,123,637.46,122.65,637.42,122.08Z"/><path class="cls-1" d="M84.8,117.57c0-2.9.21-5.61,0-8.28-.35-3.53-2.65-5.56-6-6.42A20.63,20.63,0,0,0,65.13,104c-1.47.63-2.86,1.46-4.49,2.3.28-1.77.48-3.42.84-5,.09-.42.63-.84,1.06-1.07a24.17,24.17,0,0,1,8.28-2.68,28.2,28.2,0,0,1,14.67,1.38,13.51,13.51,0,0,1,9,12.19c.13,1.45.15,2.91.15,4.37q0,14.85,0,29.68v2c-2.41,0-4.66.09-6.9,0a2.11,2.11,0,0,1-2-2c-.08-.64-.12-1.29-.15-1.93a4.39,4.39,0,0,0-.31-1.79c-.38.43-.75.87-1.13,1.29a16,16,0,0,1-10.36,5.15,20.54,20.54,0,0,1-7.57-.39c-5.63-1.48-9.32-6.06-9.92-12.06a14.85,14.85,0,0,1,9.29-15.69,35.33,35.33,0,0,1,16.52-2.4C83,117.39,83.81,117.48,84.8,117.57Zm0,4.5a23.17,23.17,0,0,0-9.77-.07c-5.41,1.27-9.45,4.54-9,11.14.26,4.28,2.77,7.39,7,8.13s7.53-.73,10.39-3.61a5.58,5.58,0,0,0,1.55-4.14c0-3.4,0-6.8,0-10.2C84.92,123,84.87,122.58,84.83,122.07Z"/><path class="cls-1" d="M519.61,127.86a32.41,32.41,0,0,0,.33,8c.89,4.2,3.59,6.45,8,7a26.31,26.31,0,0,0,17.18-4l1.57-.93c-.28,1.89-.5,3.54-.82,5.17a1.58,1.58,0,0,1-.8.91,34.43,34.43,0,0,1-13,3.9,30.05,30.05,0,0,1-12.78-1.51,13,13,0,0,1-8.87-10.81,46.91,46.91,0,0,1-.6-7.1c0-4.7,0-9.4.22-14.1a18.4,18.4,0,0,1,3.49-10.12,16.09,16.09,0,0,1,9.12-6.1,31,31,0,0,1,14.6-.47,13.56,13.56,0,0,1,11,12.89,15,15,0,0,1-9.46,15,35.58,35.58,0,0,1-16,2.38c-.92,0-1.83-.15-2.75-.22A3,3,0,0,0,519.61,127.86Zm-.07-5a25,25,0,0,0,12.38-.3,9.59,9.59,0,0,0,6.35-6.42,18.84,18.84,0,0,0,.68-7.86c-.43-3.73-2.77-6.07-6.23-6.34a15.94,15.94,0,0,0-5.46.47,9.25,9.25,0,0,0-7.22,7.48C519.15,114.11,519.67,118.43,519.54,122.81Z"/><path class="cls-1" d="M735.12,89.37c-3.07,2.58-6,5-10.17,4.59a17.34,17.34,0,0,1-8.3-3.42C711.41,86.81,706.21,83,701,79.28c-7.45-5.36-15-10.65-22.89-15.31A82.75,82.75,0,0,0,651,53.62a61.53,61.53,0,0,0-11.09-1.14c-7.52,0-15,0-22.54,0a1.71,1.71,0,0,1-2-1.65c.57,0,1.12-.1,1.68-.1h16.21c3.62,0,7.24,0,10.86,0,4.11.06,8.22.1,12.31.36,6.94.44,13.88,1,20.61,3a86.51,86.51,0,0,1,26,12.48c10.3,7.23,20.54,14.56,30.81,21.84C734.24,88.65,734.56,88.93,735.12,89.37Z"/><path class="cls-1" d="M722.09,98.9a18,18,0,0,1-7.58,4.38,9.75,9.75,0,0,1-4.79-.37,17.75,17.75,0,0,1-6.25-3c-7-5.1-13.92-10.24-20.92-15.31-3.45-2.5-6.94-5-10.51-7.3-4.89-3.21-10.37-5-16-6.35-6.41-1.54-12.92-1.73-19.46-1.69-3.24,0-6.49-.08-9.73-.09a1.53,1.53,0,0,1-1.74-1.46,8.45,8.45,0,0,1,1.2-.17c8.91,0,17.83-.17,26.74.14,8.68.29,17.31,1.25,25.62,4.07a63.59,63.59,0,0,1,16.13,7.79c9,6.24,17.84,12.56,26.76,18.85C721.68,98.51,721.79,98.63,722.09,98.9Z"/><path class="cls-1" d="M297.19,81.25h3.29c1.62,0,3.24,0,4.87,0a10.6,10.6,0,0,1,2.09.22,2.88,2.88,0,0,1,2.47,2.79c0,.38,0,.76,0,1.14V147.1a5.48,5.48,0,0,1-.95.21c-2.16,0-4.32,0-6.48,0s-3-1-3.17-3.08c0-.54,0-1.08,0-1.62v-54C299.33,84.5,299.33,84.5,297.19,81.25Z"/><path class="cls-1" d="M553.43,139.62l2.65,1.31a24.66,24.66,0,0,0,11.69,2.84,12.41,12.41,0,0,0,5-1.2c4.36-2.1,5-7,4-9.92a6.05,6.05,0,0,0-2.7-3.34,59.35,59.35,0,0,0-5.26-2.85,63.5,63.5,0,0,1-9-4.73,13.12,13.12,0,0,1-3.84-17,11.84,11.84,0,0,1,4.83-4.66,21.15,21.15,0,0,1,11.62-2.21,24,24,0,0,1,8.34,1.82,3.64,3.64,0,0,1,2.53,3,28.17,28.17,0,0,0,.73,3.19c-.65-.38-1.09-.65-1.54-.9a17.78,17.78,0,0,0-12.8-2.12,7.57,7.57,0,0,0-5.84,8.66,5.76,5.76,0,0,0,2.52,4.17,53.58,53.58,0,0,0,5.11,2.78c2.46,1.22,5,2.29,7.44,3.56a15.23,15.23,0,0,1,5.29,4.45C588,131.7,586.86,140,581.76,144a19.77,19.77,0,0,1-10.58,4.06,30.43,30.43,0,0,1-14.91-2.14,2.84,2.84,0,0,1-1.95-2.31C554.12,142.36,553.77,141.12,553.43,139.62Z"/><path class="cls-1" d="M776.32,42.27c1.19,1,2.36,2,3.59,2.93a1.69,1.69,0,0,0,1.2,0c1.46-.36,2.94-.73,4.36-1.22a9,9,0,0,1,4.3-.46c3.42.47,6.84.94,10.24,1.52,5,.85,7.31,5,6.12,10.36-.48-.31-.93-.59-1.36-.89A9.1,9.1,0,0,0,799,52.74c-3,.16-6,.26-9,.55a24.06,24.06,0,0,0-7.22,2.3c-.94.4-1.88.83-2.79,1.3a5.52,5.52,0,0,1-6.23-.53c-3.37-2.44-6.75-4.85-10.13-7.28q-5.93-4.24-11.84-8.5a14.72,14.72,0,0,1-4-4.16c-.71-1.15-1.3-2.37-.73-3.83a1.77,1.77,0,0,1,.43.31A10.61,10.61,0,0,0,754.53,37a55.83,55.83,0,0,0,7.4.72c7,.1,14.05.08,21.07,0,3.69,0,4.48,1.69,5.35,3.74.48,1.14.21,1.53-1,1.46-2.1-.13-4.2-.37-6.3-.56-1.5-.13-3-.24-4.51-.36Z"/><path class="cls-1" d="M112.29,147.23H102.6v-41.5c0-.49,0-1,0-1.46a6.62,6.62,0,0,0-2.46-5.89h3.36c1.89,0,3.78,0,5.67,0,2.32.08,3.06.88,3.13,3.19,0,.43,0,.85.06,1.5a9.18,9.18,0,0,0,.77-.68,13.11,13.11,0,0,1,11.12-4.54c1,.06,2,.27,3,.43a1.47,1.47,0,0,1,1.32,1.39c.25,1.58.61,3.14,1,4.88-.9-.28-1.59-.55-2.31-.72a13.44,13.44,0,0,0-9.85,1.47c-3.27,1.82-4.58,4.9-5,8.44a30.18,30.18,0,0,0-.13,3.56q0,13.94,0,27.87Z"/><path class="cls-1" d="M590.21,98.71c.26-.16.35-.26.43-.26,2.86,0,5.73,0,8.59,0,2.15,0,2.89.84,2.94,3,0,.7,0,1.41,0,2.11v43.7c-2.65,0-5.12.07-7.59,0a2.05,2.05,0,0,1-2-2,10.79,10.79,0,0,1,0-1.61c0-13,0-26,0-38.92C592.6,102.33,592.55,100.1,590.21,98.71Z"/><path class="cls-1" d="M789.29,126.35a.31.31,0,0,1,.13,0c2.75,1.35,5.43.89,8.07-.33a25.83,25.83,0,0,0,7-5c3.12-3,6.2-6,9.29-9l.15-.18c-.4-.12-.75-.24-1.12-.34l-4.14-1.21a.52.52,0,0,0-.61.15c-2.19,2.17-4.37,4.35-6.59,6.48a17.31,17.31,0,0,1-5.47,3.67,7.85,7.85,0,0,1-6.09.17,7.28,7.28,0,0,1-2.09-1.33s.07-.07.08-.06a6.82,6.82,0,0,0,5.21-.24,15.67,15.67,0,0,0,4.33-2.86c2.57-2.17,4.95-4.55,7.35-6.91l.13-.16c-.77-.22-1.49-.45-2.23-.65l-3.49-.91a.56.56,0,0,0-.62.17,52.18,52.18,0,0,1-5.58,4.81,11.09,11.09,0,0,1-5.14,2.1,10.81,10.81,0,0,1-4.52-.51A8.08,8.08,0,0,1,781,113a3,3,0,0,1-.24-5,9.35,9.35,0,0,1,3.41-1.84,20,20,0,0,1,7.57-.92c1.44.09,2.86.28,4.3.41a.68.68,0,0,0,.46-.19c1.87-1.77,3.73-3.55,5.58-5.32A29.73,29.73,0,0,1,807.4,96a13.32,13.32,0,0,1,5.37-2,10.8,10.8,0,0,1,9,3.15s0,.06.07.11-.12,0-.15,0a9.12,9.12,0,0,0-4.91-1.36,12.25,12.25,0,0,0-7.1,2.08,33,33,0,0,0-5.64,4.49l-4,3.91-.19.21,1,.33c1.49.46,3,.91,4.48,1.38a.48.48,0,0,0,.55-.14c1.58-1.51,3.12-3.07,4.78-4.48a13.63,13.63,0,0,1,6.58-3.22,9.23,9.23,0,0,1,7.85,2.12,1.14,1.14,0,0,1,.15.16l-.08.05a9.56,9.56,0,0,0-6.52-.26,15.51,15.51,0,0,0-6.26,3.75c-1,.93-2,1.86-3,2.78a1.74,1.74,0,0,1-.33.18l.1.14,2.74.78c.87.24,1.73.46,2.59.71a.55.55,0,0,0,.62-.14,23.63,23.63,0,0,1,4-3.08,10.59,10.59,0,0,1,6.38-1.65,7.64,7.64,0,0,1,4.27,1.75,2.33,2.33,0,0,1,0,3.86,7.7,7.7,0,0,1-4,1.66,21.91,21.91,0,0,1-6.26-.21c-.58-.09-1.15-.19-1.72-.31a.56.56,0,0,0-.59.19c-2.53,2.57-5,5.16-7.61,7.71a49.68,49.68,0,0,1-6.73,5.81,14.2,14.2,0,0,1-5.56,2.49,8.76,8.76,0,0,1-7.88-2.47S789.33,126.4,789.29,126.35Zm5.77-19.45a25.26,25.26,0,0,0-6.8.22,10.87,10.87,0,0,0-4,1.37,4,4,0,0,0-1.95,2.34,1.67,1.67,0,0,0,1,2.12,5.18,5.18,0,0,0,1.41.27,6.89,6.89,0,0,0,3.61-1,23.08,23.08,0,0,0,4.13-3Zm23.54,4.61.06.13c.54,0,1.09.1,1.63.12a13.11,13.11,0,0,0,5.59-.76,4.31,4.31,0,0,0,1.94-1.34,1.22,1.22,0,0,0-.75-2.07,4.13,4.13,0,0,0-2.33.22,16.92,16.92,0,0,0-4,2.1C820,110.4,819.31,111,818.6,111.51Z"/><path class="cls-1" d="M783.86,138.19a33.81,33.81,0,0,0,24,7.1,34.21,34.21,0,0,0,31.29-34,34.08,34.08,0,0,0-9.54-23.92c8.63,8,12.63,17.81,11.38,29.54a34.14,34.14,0,0,1-57.11,21.27Z"/><path class="cls-1" d="M820.51,74.45c-.31.48-.6,1-.93,1.42Q818.14,78,816.66,80c-.07.1-.28.12-.43.15s-.19-.07-.28-.07c-.89,0-1.15-.55-1.2-1.39-.12-2-.34-3.9-.52-5.85a.45.45,0,0,0,0-.11c-.55,2.19-1.08,4.35-1.62,6.54l-2-.31c.74-2.88,1.47-5.73,2.2-8.62l1.77.33.51.11c.82.16.67,0,.76.87.13,1.25.29,2.49.38,3.74.06.77,0,1.54,0,2.35a.65.65,0,0,0,.16-.07l3.43-5.18c.3-.46.32-.45.84-.26l1.94.67.33.12-2.29,8.59-1.87-.71,1.78-6.43Z"/><path class="cls-1" d="M792.29,80.13l.82,1.4-6.36,3.72-4.46-7.61L788.57,74l.82,1.4L784.94,78l.95,1.63L790,77.22l.77,1.29-4.09,2.39,1.09,1.88Z"/><path class="cls-1" d="M796.78,80.35c.22-.94.42-1.81.63-2.67.52-2.18,1.05-4.36,1.56-6.55.08-.32.21-.48.55-.51A11.48,11.48,0,0,0,801,70.4a.39.39,0,0,1,.48.22q2,3.3,4.06,6.58c.31.52.63,1,1,1.6-.77,0-1.47.1-2.17.12-.1,0-.22-.14-.29-.24q-.43-.69-.84-1.41a.33.33,0,0,0-.41-.19l-3,.48c-.26,0-.33.17-.37.38-.11.52-.22,1-.35,1.56a.55.55,0,0,1-.28.32C798.12,80,797.49,80.16,796.78,80.35Zm3-4.21,2.54-.41-1.79-3.14Z"/><path class="cls-1" d="M768.11,124.82a1.62,1.62,0,0,0,.11.25c.3.52.4,1-.23,1.34a1.25,1.25,0,0,0-.47,1.17,3.73,3.73,0,0,0,1,2.43,1.28,1.28,0,0,0,1,.46,1,1,0,0,0,1.08-1.08c0-.81-.23-1.62-.32-2.43a12.06,12.06,0,0,1-.13-2.07,2.23,2.23,0,0,1,3.61-1.54,4.85,4.85,0,0,1,1.48,2,5.09,5.09,0,0,1,.48,3,2.82,2.82,0,0,1-1.79,2.1l-.43-1.09s0-.07.06-.08c1.25-.62,1.36-1.79,1-3a4.06,4.06,0,0,0-.94-1.71,1.46,1.46,0,0,0-1-.48,1.17,1.17,0,0,0-1.3,1.22,17.21,17.21,0,0,0,.19,2c.09.74.26,1.47.28,2.21a1.82,1.82,0,0,1-1.08,1.81,2.17,2.17,0,0,1-2.36-.17,4.61,4.61,0,0,1-1.64-2.59,3.5,3.5,0,0,1,0-2.47A2.72,2.72,0,0,1,768.11,124.82Z"/><path class="cls-1" d="M781.18,90.57l-1.33,1.63-5.57-4.55-1.86,2.26-1.25-1,5.05-6.17,1.26,1L775.62,86Z"/><path class="cls-1" d="M764.16,117.45v-1.3h4.24l0-.13-.79-.86c-1.13-1.21-2.25-2.42-3.38-3.62a.88.88,0,0,1-.27-.66c0-.39,0-.78,0-1.26l3.6,4,5.09-4.3.13,0c0,.47,0,.93,0,1.39,0,.12-.15.25-.26.34l-3.78,3.13-.34.3c.46.5.9,1,1.36,1.48a.48.48,0,0,0,.34.07l2.35-.05h.44v1.25Z"/><path class="cls-1" d="M765,102.94c.17-.49.3-.91.47-1.31,0-.11.23-.17.37-.21,1.44-.41,2.88-.8,4.33-1.2a1.56,1.56,0,0,0,.17-.07c-.46-.63-.91-1.24-1.37-1.85s-1-1.27-1.4-1.92a.73.73,0,0,1-.08-.5c.09-.36.23-.7.38-1.12.46.66.88,1.25,1.29,1.85.72,1,1.44,2,2.17,3.07a1.05,1.05,0,0,0,.48.35c.91.34,1.82.65,2.74,1l.34.14-.41,1.17-1.68-.58-.14,0a3.53,3.53,0,0,0-3-.16c-1.34.52-2.74.86-4.12,1.27Z"/><path class="cls-1" d="M826.37,76.51l.5-1.06-.06-.06a8.36,8.36,0,0,1-.66.67c-.08.08-.22.08-.33.11a1.25,1.25,0,0,1-.08-.32,4.55,4.55,0,0,0,0-.91l-.53,1c-.08-.18-.18-.3-.15-.37.19-.42.4-.84.61-1.26.42,0,.53.26.42.64a1.72,1.72,0,0,0,0,.72,4.89,4.89,0,0,0,.5-.52c.21-.3.43-.32.74,0-.21.42-.42.87-.65,1.3C826.69,76.51,826.53,76.49,826.37,76.51Z"/><path class="cls-1" d="M824.42,75.47c-.25,0-.31-.09-.21-.3s.29-.65.44-1c0,0,0,0,0-.06l-.3-.33a3.78,3.78,0,0,1,.46.1,2.94,2.94,0,0,1,.51.23c.07,0,.11.13.16.2a1.23,1.23,0,0,1-.27,0,.69.69,0,0,1-.2-.07Z"/></g></g></svg>