<svg id="Layer_3" height="512" viewBox="0 0 64 64" width="512" xmlns="http://www.w3.org/2000/svg" data-name="Layer 3"><path d="m62 30-21 17h-18l-21-17 9-8h42z" fill="#f9d266"/><path d="m11 2h42v20h-42z" fill="#356815"/><path d="m47 18a2 2 0 0 1 2-2v-8a2 2 0 0 1 -2-2h-30a2 2 0 0 1 -2 2v8a2 2 0 0 1 2 2z" fill="#6bc13b"/><path d="m44 11.014v-5.014h-27a2 2 0 0 1 -2 2v5.014h27a2 2 0 0 0 2-2z" fill="#7bdf45"/><circle cx="32" cy="12" fill="#559b2d" r="6"/><path d="m11 22h42v20h-42z" fill="#559b2d"/><path d="m47 38a2 2 0 0 1 2-2v-8a2 2 0 0 1 -2-2h-30a2 2 0 0 1 -2 2v8a2 2 0 0 1 2 2z" fill="#6bc13b"/><path d="m44 31.014v-5.014h-27a2 2 0 0 1 -2 2v5.014h27a2 2 0 0 0 2-2z" fill="#7bdf45"/><circle cx="32" cy="32" fill="#559b2d" r="6"/><path d="m62 30-21 17h-18l-21-17v32h60z" fill="#f4a93c"/><path d="m2 62 21-15h18l21 15" fill="#f6b940"/></svg>