<svg id="Capa_1" enable-background="new 0 0 512 512" height="512" viewBox="0 0 512 512" width="512" xmlns="http://www.w3.org/2000/svg"><g><g><path d="m19.408 422.226h45.695v64.958s-20.769 0-28.336 0c-13.453 0-24.359-10.906-24.359-24.359v-33.599c0-3.866 3.134-7 7-7z" fill="#6fd7a3"/><path d="m40.214 422.226v40.599c0 9.71-5.683 18.091-13.903 22.004 3.168 1.508 6.713 2.355 10.456 2.355h28.336v-64.958z" fill="#3ec3a4"/><path d="m492.592 64.958h-51.888v-64.958h34.529c13.453 0 24.359 10.906 24.359 24.359v33.599c0 3.866-3.134 7-7 7z" fill="#6fd7a3"/><path d="m485.689 2.355c-3.169-1.509-6.713-2.355-10.456-2.355-4.221 0-34.529 0-34.529 0v64.958h31.082v-40.599c0-9.71 5.683-18.091 13.903-22.004z" fill="#3ec3a4"/><path d="m93.758 0c-18.022 0-32.632 14.61-32.632 32.632v430.193c0 13.453-10.906 24.359-24.359 24.359h34.839l-.014-.033h143.807l8.222-11.503h63.914l9.066 11.503h121.503c18.098 0 32.769-14.671 32.769-32.769v-430.023c.001-13.453 10.907-24.359 24.36-24.359z" fill="#9be69d"/><path d="m144.745 487.152c12.866-.658 23.095-11.298 23.095-24.327v-430.193c0-18.022 14.609-32.632 32.631-32.632h-106.713c-18.022 0-32.632 14.61-32.632 32.632v430.193c0 13.453-10.906 24.359-24.359 24.359h34.839l-.014-.033h73.153z" fill="#6fd7a3"/><path d="m385.981 454.673h-218.138l-49.224-32.414v-357.366l49.224-32.414h218.141c0 17.9 14.51 32.41 32.41 32.41v357.37c-17.901 0-32.413 14.512-32.413 32.414z" fill="#e9f5ff"/><path d="m135.43 422.259v-357.366c17.902 0 32.414-14.512 32.414-32.414h-41.824c0 17.902-14.512 32.414-32.414 32.414v357.366c17.902 0 32.414 14.512 32.414 32.414h41.824c-.001-17.902-14.513-32.414-32.414-32.414z" fill="#cfe8f9"/><g><path d="m296.601 405.259v99.623c0 5.957-6.891 9.269-11.543 5.548l-29.058-23.245-29.058 23.245c-4.652 3.721-11.543.409-11.543-5.548v-99.623z" fill="#ff8086"/><g><path d="m246.767 405.259h-31.368v99.623c0 5.957 6.891 9.269 11.543 5.548l19.825-15.859z" fill="#e5646e"/></g><circle cx="256" cy="341.029" fill="#ffe177" r="81.197"/><path d="m227.083 341.029c0-35.695 23.043-65.988 55.057-76.872-8.206-2.79-16.991-4.325-26.14-4.325-44.844 0-81.197 36.353-81.197 81.197s36.353 81.197 81.197 81.197c9.149 0 17.935-1.536 26.14-4.325-32.014-10.884-55.057-41.177-55.057-76.872z" fill="#fed15b"/><circle cx="256" cy="341.029" fill="#f8c146" r="48.718"/><path d="m249.106 341.029c0-19.42 11.366-36.183 27.806-44.009-6.337-3.017-13.426-4.71-20.912-4.71-26.906 0-48.718 21.812-48.718 48.718 0 36.026 37.637 59.239 69.631 44.009-16.441-7.825-27.807-24.588-27.807-44.008z" fill="#edad2e"/></g></g><g><g fill="#aec7d3"><path d="m353.437 105.834h-194.874c-4.332 0-7.842 3.511-7.842 7.842s3.511 7.842 7.842 7.842h194.873c4.332 0 7.842-3.511 7.842-7.842.001-4.331-3.51-7.842-7.841-7.842z"/><path d="m353.437 138.313h-194.874c-4.332 0-7.842 3.511-7.842 7.842s3.511 7.842 7.842 7.842h194.873c4.332 0 7.842-3.511 7.842-7.842.001-4.331-3.51-7.842-7.841-7.842z"/><path d="m361.279 178.634c0-4.331-3.511-7.842-7.842-7.842h-194.874c-4.332 0-7.842 3.511-7.842 7.842s3.511 7.842 7.842 7.842h194.873c4.332 0 7.843-3.511 7.843-7.842z"/><path d="m296.746 72.8c4.332 0 7.842-3.511 7.842-7.842s-3.511-7.842-7.842-7.842h-81.492c-4.332 0-7.842 3.511-7.842 7.842s3.511 7.842 7.842 7.842z"/><path d="m215.254 202.951c-4.332 0-7.842 3.511-7.842 7.842s3.511 7.842 7.842 7.842h81.492c4.332 0 7.842-3.511 7.842-7.842s-3.511-7.842-7.842-7.842z"/></g></g></g></svg>