<?xml version="1.0" encoding="iso-8859-1"?>
<!-- Generator: Adobe Illustrator 21.0.0, SVG Export Plug-In . SVG Version: 6.00 Build 0)  -->
<svg xmlns="http://www.w3.org/2000/svg" xmlns:xlink="http://www.w3.org/1999/xlink" version="1.1" id="Capa_1" x="0px" y="0px" viewBox="0 0 512 512" style="enable-background:new 0 0 512 512;" xml:space="preserve" width="512" height="512">
<g>
	<rect y="76" style="fill:#CAE8F9;" width="512" height="360"/>
	<rect x="256" y="76" style="fill:#A3D9F6;" width="256" height="360"/>
	<g>
		<g>
			<rect x="307.255" y="172.613" style="fill:#0088FF;" width="90.842" height="30"/>
			<rect x="307.255" y="241" style="fill:#0088FF;" width="144.278" height="30"/>
			<rect x="307.255" y="309.387" style="fill:#0088FF;" width="144.278" height="30"/>
		</g>
	</g>
	<path style="fill:#60DD4E;" d="M182.796,217.227h-63.111c-33.717,0-61.148,27.431-61.148,61.148V364h185.408v-85.625   C243.944,244.657,216.514,217.227,182.796,217.227z"/>
	<path style="fill:#FFDBA9;" d="M151.241,127.323c-31.341,0-56.839,25.498-56.839,56.839c0,31.341,25.498,56.839,56.839,56.839   s56.839-25.498,56.839-56.839C208.08,152.82,182.581,127.323,151.241,127.323z"/>
</g>















</svg>
