<svg id="Layer_3" enable-background="new 0 0 64 64" height="512" viewBox="0 0 64 64" width="512" xmlns="http://www.w3.org/2000/svg"><g><path d="m30 31c0-3.314-2.686-6-6-6h-3-8-3c-3.314 0-6 2.686-6 6v14h18v-14z" fill="#4472b0"/><path d="m4 51h56v12h-56z" fill="#c18e5c"/><path d="m22 31h22v14h-22z" fill="#a0a8b2"/><path d="m22 31v10.714c1.134.182 2.302.286 3.5.286 8.349 0 15.4-4.635 17.702-11z" fill="#b3b9c1"/><g><path d="m54 39c-.358 0-.689-.192-.868-.504l-4-7 1.736-.992 3.073 5.377 2.164-4.329 1.789.895-3 6c-.165.33-.498.542-.867.552-.008.001-.018.001-.027.001z" fill="#a0a8b2"/></g><path d="m50 38h8v7h-8z" fill="#c18e5c"/><path d="m2 45h60v6h-60z" fill="#976947"/><path d="m19 6v4c0 1.657 1.343 3 3 3h5v-5c0-3.866-3.134-7-7-7h-6c-3.866 0-7 3.134-7 7v5h6c3.314 0 6-2.686 6-6z" fill="#787e85"/><g><path d="m22 13c-1.657 0-3-1.343-3-3v-3c0 3.314-2.686 6-6 6h-4v5c0 4.418 3.582 8 8 8s8-3.582 8-8v-5z" fill="#f9d296"/></g><path d="m9 18v-4h-1c-1.657 0-3 1.343-3 3s1.343 3 3 3h1.262c-.165-.64-.262-1.308-.262-2z" fill="#f9d296"/><path d="m26 14h-1v4c0 .692-.097 1.36-.262 2h1.262c1.657 0 3-1.343 3-3s-1.343-3-3-3z" fill="#f9d296"/><g><path d="m9 37h2v8h-2z" fill="#698ec0"/></g><circle cx="33" cy="38" fill="#f2c351" r="2"/><path d="m13 25 4 6 4-6z" fill="#f9d296"/><path d="m17 31-1-1.5v15.5h2v-15.5z" fill="#698ec0"/><circle cx="53" cy="11" fill="#a0a8b2" r="9"/><g><path d="m34 15h7v2h-7z" fill="#b3b9c1"/></g><g><path d="m32 19h9v2h-9z" fill="#b3b9c1"/></g><g fill="#ebf7fe"><path d="m51.949 2.066.051 2.951 2-.034-.05-2.932c-.313-.033-.629-.051-.95-.051-.356 0-.706.026-1.051.066z"/><path d="m52 19.941c.329.037.662.059 1 .059s.671-.022 1-.059v-2.941h-2z"/><path d="m44 11c0 .338.022.671.059 1h2.941v-2h-2.941c-.037.329-.059.662-.059 1z"/><path d="m59 12h2.941c.037-.329.059-.662.059-1s-.022-.671-.059-1h-2.941z"/></g><g><path d="m50.707 14.707-1.414-1.414 2.707-2.707v-3.586h2v4c0 .265-.105.52-.293.707z" fill="#ebf7fe"/></g></g></svg>